<svg width="201" height="59" viewBox="0 0 201 59" fill="none" xmlns="http://www.w3.org/2000/svg">
<rect width="201" height="59" fill="#F5F5F5"/>
<path d="M193.556 59H7.44444C3.35186 59 0 55.6794 0 51.625V7.375C0 3.3206 3.35186 5.4802e-06 7.44444 5.4802e-06H193.556C197.648 5.4802e-06 201 3.3206 201 7.375V51.625C201 55.6794 197.648 59 193.556 59Z" fill="black"/>
<path d="M193.556 1.18185C197.002 1.18185 199.807 3.96038 199.807 7.375V51.625C199.807 55.0396 197.002 57.8182 193.556 57.8182H7.44444C3.99767 57.8182 1.19297 55.0396 1.19297 51.625V7.375C1.19297 3.96038 3.99767 1.18185 7.44444 1.18185H193.556ZM193.556 5.4802e-06H7.44444C3.35186 5.4802e-06 0 3.3206 0 7.375V51.625C0 55.6794 3.35186 59 7.44444 59H193.556C197.648 59 201 55.6794 201 51.625V7.375C201 3.3206 197.648 5.4802e-06 193.556 5.4802e-06Z" fill="#A6A6A6"/>
<path d="M70.5994 15.1095C70.5994 16.3411 70.2272 17.3276 69.4939 18.0632C68.6508 18.9353 67.5527 19.3741 66.2072 19.3741C64.9211 19.3741 63.8231 18.9279 62.9223 18.0485C62.0197 17.1561 61.5693 16.0609 61.5693 14.75C61.5693 13.4391 62.0197 12.3439 62.9223 11.4589C63.8231 10.5721 64.9211 10.1259 66.2072 10.1259C66.8474 10.1259 67.4578 10.2568 68.0404 10.5002C68.621 10.7454 69.0937 11.0772 69.4362 11.4866L68.6582 12.2646C68.0608 11.5658 67.2475 11.2211 66.2072 11.2211C65.2692 11.2211 64.4559 11.5456 63.7654 12.2001C63.0824 12.8565 62.7399 13.7064 62.7399 14.75C62.7399 15.7936 63.0824 16.6509 63.7654 17.3073C64.4559 17.9544 65.2692 18.2863 66.2072 18.2863C67.2029 18.2863 68.0404 17.9544 68.7011 17.2999C69.1366 16.8666 69.3841 16.2692 69.4492 15.5059H66.2072V14.4402H70.5324C70.5845 14.6707 70.5994 14.8938 70.5994 15.1095V15.1095Z" fill="white" stroke="white" stroke-width="0.16" stroke-miterlimit="10"/>
<path d="M77.4613 11.4146H73.3985V14.2171H77.0612V15.2828H73.3985V18.0853H77.4613V19.1713H72.2483V10.3287H77.4613V11.4146Z" fill="white" stroke="white" stroke-width="0.16" stroke-miterlimit="10"/>
<path d="M82.3039 19.1713H81.1537V11.4146H78.6617V10.3287H84.7978V11.4146H82.3039V19.1713V19.1713Z" fill="white" stroke="white" stroke-width="0.16" stroke-miterlimit="10"/>
<path d="M89.2384 19.1713V10.3287H90.3867V19.1713H89.2384Z" fill="white" stroke="white" stroke-width="0.16" stroke-miterlimit="10"/>
<path d="M95.4768 19.1713H94.3359V11.4146H91.8346V10.3287H97.9781V11.4146H95.4768V19.1713Z" fill="white" stroke="white" stroke-width="0.16" stroke-miterlimit="10"/>
<path d="M109.595 18.0337C108.715 18.9279 107.624 19.3741 106.323 19.3741C105.015 19.3741 103.924 18.9279 103.044 18.0337C102.166 17.1413 101.728 16.0462 101.728 14.75C101.728 13.4538 102.166 12.3587 103.044 11.4663C103.924 10.5721 105.015 10.1259 106.323 10.1259C107.617 10.1259 108.708 10.5721 109.588 11.4737C110.474 12.3734 110.911 13.4612 110.911 14.75C110.911 16.0462 110.474 17.1413 109.595 18.0337ZM103.895 17.2925C104.557 17.9544 105.363 18.2863 106.323 18.2863C107.276 18.2863 108.09 17.9544 108.745 17.2925C109.405 16.6306 109.74 15.7807 109.74 14.75C109.74 13.7193 109.405 12.8694 108.745 12.2075C108.09 11.5456 107.276 11.2137 106.323 11.2137C105.363 11.2137 104.557 11.5456 103.895 12.2075C103.234 12.8694 102.899 13.7193 102.899 14.75C102.899 15.7807 103.234 16.6306 103.895 17.2925V17.2925Z" fill="white" stroke="white" stroke-width="0.16" stroke-miterlimit="10"/>
<path d="M112.525 19.1713V10.3287H113.92L118.261 17.2059H118.311L118.261 15.5059V10.3287H119.409V19.1713H118.21L113.665 11.9549H113.615L113.665 13.6622V19.1713H112.525V19.1713Z" fill="white" stroke="white" stroke-width="0.16" stroke-miterlimit="10"/>
<path d="M101.445 32.085C97.9484 32.085 95.0916 34.7215 95.0916 38.3592C95.0916 41.9675 97.9484 44.6317 101.445 44.6317C104.95 44.6317 107.807 41.9675 107.807 38.3592C107.807 34.7215 104.95 32.085 101.445 32.085ZM101.445 42.1611C99.5266 42.1611 97.8758 40.592 97.8758 38.3592C97.8758 36.097 99.5266 34.5556 101.445 34.5556C103.364 34.5556 105.022 36.097 105.022 38.3592C105.022 40.592 103.364 42.1611 101.445 42.1611V42.1611ZM87.582 32.085C84.0775 32.085 81.2282 34.7215 81.2282 38.3592C81.2282 41.9675 84.0775 44.6317 87.582 44.6317C91.0846 44.6317 93.9358 41.9675 93.9358 38.3592C93.9358 34.7215 91.0846 32.085 87.582 32.085ZM87.582 42.1611C85.6613 42.1611 84.0049 40.592 84.0049 38.3592C84.0049 36.097 85.6613 34.5556 87.582 34.5556C89.5008 34.5556 91.1516 36.097 91.1516 38.3592C91.1516 40.592 89.5008 42.1611 87.582 42.1611ZM71.0851 34.008V36.6741H77.5115C77.3235 38.1638 76.821 39.259 76.0505 40.0223C75.1125 40.9442 73.6516 41.9675 71.0851 41.9675C67.1302 41.9675 64.0334 38.8054 64.0334 34.8875C64.0334 30.9695 67.1302 27.8075 71.0851 27.8075C73.2235 27.8075 74.7794 28.6353 75.9277 29.7084L77.8242 27.8296C76.2181 26.3103 74.0815 25.1432 71.0851 25.1432C65.6618 25.1432 61.104 29.5148 61.104 34.8875C61.104 40.2602 65.6618 44.6317 71.0851 44.6317C74.0164 44.6317 76.218 43.6803 77.9489 41.8956C79.7225 40.1385 80.2753 37.6678 80.2753 35.6729C80.2753 35.0534 80.2232 34.4837 80.1301 34.008H71.0851ZM138.543 36.0748C138.02 34.6717 136.406 32.085 133.12 32.085C129.863 32.085 127.151 34.6275 127.151 38.3592C127.151 41.8734 129.835 44.6317 133.432 44.6317C136.341 44.6317 138.02 42.8746 138.71 41.8513L136.552 40.4261C135.831 41.4697 134.85 42.1611 133.432 42.1611C132.023 42.1611 131.013 41.5213 130.365 40.2602L138.835 36.7884L138.543 36.0748V36.0748ZM129.907 38.1638C129.835 35.7448 131.804 34.5058 133.215 34.5058C134.32 34.5058 135.258 35.0534 135.571 35.837L129.907 38.1638V38.1638ZM123.023 44.25H125.807V25.8125H123.023V44.25ZM118.463 33.4825H118.37C117.745 32.7487 116.552 32.085 115.041 32.085C111.869 32.085 108.97 34.8432 108.97 38.3795C108.97 41.8956 111.869 44.6317 115.041 44.6317C116.552 44.6317 117.745 43.9624 118.37 43.2065H118.463V44.1062C118.463 46.5049 117.17 47.7937 115.084 47.7937C113.383 47.7937 112.327 46.5768 111.892 45.5536L109.471 46.5547C110.168 48.2178 112.017 50.2643 115.084 50.2643C118.348 50.2643 121.102 48.3616 121.102 43.7319V32.4666H118.463V33.4825V33.4825ZM115.279 42.1611C113.36 42.1611 111.754 40.5699 111.754 38.3795C111.754 36.1689 113.36 34.5556 115.279 34.5556C117.17 34.5556 118.661 36.1689 118.661 38.3795C118.661 40.5699 117.17 42.1611 115.279 42.1611V42.1611ZM151.578 25.8125H144.919V44.25H147.696V37.2641H151.578C154.662 37.2641 157.686 35.0534 157.686 31.5374C157.686 28.0232 154.655 25.8125 151.578 25.8125V25.8125ZM151.651 34.6994H147.696V28.3772H151.651C153.724 28.3772 154.908 30.0827 154.908 31.5374C154.908 32.9644 153.724 34.6994 151.651 34.6994ZM168.816 32.0499C166.809 32.0499 164.723 32.9276 163.865 34.8727L166.329 35.896C166.86 34.8727 167.835 34.5408 168.866 34.5408C170.306 34.5408 171.767 35.3982 171.79 36.9119V37.1055C171.287 36.8179 170.212 36.392 168.888 36.392C166.234 36.392 163.53 37.8393 163.53 40.5404C163.53 43.011 165.704 44.6022 168.148 44.6022C170.016 44.6022 171.047 43.767 171.695 42.7953H171.79V44.2205H174.472V37.1479C174.472 33.8789 172.008 32.0499 168.816 32.0499ZM168.481 42.1537C167.573 42.1537 166.307 41.7075 166.307 40.592C166.307 39.165 167.885 38.6174 169.251 38.6174C170.474 38.6174 171.047 38.8847 171.79 39.2369C171.572 40.9442 170.089 42.1537 168.481 42.1537V42.1537ZM184.242 32.4537L181.051 40.4464H180.956L177.656 32.4537H174.661L179.619 43.6231L176.791 49.8384H179.692L187.332 32.4537H184.242V32.4537ZM159.212 44.25H161.997V25.8125H159.212V44.25Z" fill="white"/>
<path d="M15.5366 11.1196C15.0992 11.5732 14.8461 12.2794 14.8461 13.1939V45.8135C14.8461 46.728 15.0992 47.4341 15.5366 47.8877L15.6445 47.9873L34.0956 29.7157V29.2843L15.6445 11.0127L15.5366 11.1196Z" fill="url(#paint0_linear_0_1)"/>
<path d="M40.239 35.8093L34.0955 29.7157V29.2842L40.2465 23.1907L40.3842 23.2699L47.6686 27.376C49.7475 28.5412 49.7475 30.4587 47.6686 31.6313L40.3842 35.73L40.239 35.8093V35.8093Z" fill="url(#paint1_linear_0_1)"/>
<path d="M40.3842 35.73L34.0955 29.5L15.5365 47.8877C16.227 48.6068 17.353 48.6934 18.6334 47.9744L40.3842 35.73" fill="url(#paint2_linear_0_1)"/>
<path d="M40.3842 23.27L18.6334 11.0256C17.353 10.3139 16.227 10.4006 15.5365 11.1197L34.0955 29.5L40.3842 23.27Z" fill="url(#paint3_linear_0_1)"/>
<defs>
<linearGradient id="paint0_linear_0_1" x1="32.4573" y1="46.1532" x2="7.70438" y2="21.1672" gradientUnits="userSpaceOnUse">
<stop stop-color="#00A0FF"/>
<stop offset="0.0066" stop-color="#00A1FF"/>
<stop offset="0.2601" stop-color="#00BEFF"/>
<stop offset="0.5122" stop-color="#00D2FF"/>
<stop offset="0.7604" stop-color="#00DFFF"/>
<stop offset="1" stop-color="#00E3FF"/>
</linearGradient>
<linearGradient id="paint1_linear_0_1" x1="50.3756" y1="29.4979" x2="14.3491" y2="29.4979" gradientUnits="userSpaceOnUse">
<stop stop-color="#FFE000"/>
<stop offset="0.4087" stop-color="#FFBD00"/>
<stop offset="0.7754" stop-color="#FFA500"/>
<stop offset="1" stop-color="#FF9C00"/>
</linearGradient>
<linearGradient id="paint2_linear_0_1" x1="36.9646" y1="26.1132" x2="3.3976" y2="-7.76984" gradientUnits="userSpaceOnUse">
<stop stop-color="#FF3A44"/>
<stop offset="1" stop-color="#C31162"/>
</linearGradient>
<linearGradient id="paint3_linear_0_1" x1="10.8648" y1="58.7401" x2="25.854" y2="43.6099" gradientUnits="userSpaceOnUse">
<stop stop-color="#32A071"/>
<stop offset="0.0685" stop-color="#2DA771"/>
<stop offset="0.4762" stop-color="#15CF74"/>
<stop offset="0.8009" stop-color="#06E775"/>
<stop offset="1" stop-color="#00F076"/>
</linearGradient>
</defs>
</svg>
